<svg xmlns="http://www.w3.org/2000/svg" viewBox="0 0 1200 800" width="1200" height="800"><defs><linearGradient id="bg" x1="0" y1="0" x2="1" y2="1"><stop offset="0" stop-color="#0b1408"/><stop offset="1" stop-color="#040703"/></linearGradient><radialGradient id="glow" cx="320" cy="620" r="620" gradientUnits="userSpaceOnUse"><stop offset="0" stop-color="#55F23E" stop-opacity=".26"/><stop offset="1" stop-color="#55F23E" stop-opacity="0"/></radialGradient><pattern id="grid" width="64" height="64" patternUnits="userSpaceOnUse"><path d="M64 0H0V64" fill="none" stroke="#55F23E" stroke-opacity=".07" stroke-width="1"/></pattern></defs><rect width="1200" height="800" fill="url(#bg)"/><rect width="1200" height="800" fill="url(#grid)"/><rect width="1200" height="800" fill="url(#glow)"/><g stroke="#55F23E" stroke-opacity=".4" stroke-width="2" fill="none"><path d="M240 250l160 90 180-60 200 120 180-70"/><path d="M240 560l160-70 180 100 200-90 180 60"/><path d="M400 340v150"/><path d="M580 290v300"/><path d="M780 410v60"/></g><g fill="#55F23E" fill-opacity=".7"><circle cx="240" cy="250" r="9"/><circle cx="400" cy="340" r="9"/><circle cx="580" cy="290" r="9"/><circle cx="780" cy="410" r="9"/><circle cx="960" cy="340" r="9"/><circle cx="240" cy="560" r="9"/><circle cx="400" cy="490" r="9"/><circle cx="580" cy="590" r="9"/><circle cx="780" cy="470" r="9"/><circle cx="960" cy="530" r="9"/></g><rect x="520" y="356" width="160" height="130" rx="24" fill="#0b1408" stroke="#55F23E" stroke-width="4"/><path d="M556 356v-26a44 44 0 0 1 88 0v26" fill="none" stroke="#55F23E" stroke-width="4"/><circle cx="600" cy="412" r="14" fill="#55F23E"/><path d="M600 426v26" stroke="#55F23E" stroke-width="6" stroke-linecap="round"/><text x="1140" y="150" text-anchor="end" font-family="ui-monospace,Menlo,Consolas,monospace" font-size="130" font-weight="700" fill="#55F23E" fill-opacity=".16">03</text><text x="64" y="720" font-family="ui-monospace,Menlo,Consolas,monospace" font-size="20" font-weight="500" letter-spacing="3.2" fill="#F4F4F0" fill-opacity=".38">SECURE APPLICATION</text><text x="64" y="754" font-family="ui-monospace,Menlo,Consolas,monospace" font-size="15" font-weight="400" letter-spacing="2.4" fill="#F4F4F0" fill-opacity=".22">project image placeholder</text></svg>
